<?xml version="1.0" encoding="UTF-8" standalone="no"?>
<!-- Created with Inkscape (http://www.inkscape.org/) -->
<!DOCTYPE svg PUBLIC "-//W3C//DTD SVG 1.1//EN" "http://www.w3.org/Graphics/SVG/1.1/DTD/svg11.dtd" [

	<!ENTITY stroke_color "#FFFFFF">
 	<!ENTITY fill_color "#000000">

]>
<svg
   xmlns:svg="http://www.w3.org/2000/svg"
   xmlns="http://www.w3.org/2000/svg"
   version="1.0"
   width="76.290001"
   height="20.507999"
   id="svg2438">
  <defs
     id="defs2440" />
  <g
     transform="translate(232.43071,-364.96533)"
     id="layer1">
    <g
       transform="translate(-752.33055,229.2208)"
       id="g2398">
		<path
   d="M 532.964,143.606 L 532.964,147.799 L 531.792,147.799 L 531.792,152.779 L 528.605,152.779 L 528.605,147.799 L 527.434,147.799 L 527.434,143.606 C 527.434,143.423 527.495,143.271 527.617,143.148 C 527.752,143.014 527.91,142.946 528.093,142.946 L 532.305,142.946 C 532.476,142.946 532.628,143.013 532.763,143.148 C 532.896,143.27 532.964,143.423 532.964,143.606 M 528.771,140.969 C 528.771,140.005 529.247,139.523 530.2,139.523 C 531.152,139.523 531.628,140.005 531.628,140.969 C 531.628,141.921 531.152,142.398 530.2,142.398 C 529.246,142.398 528.771,141.921 528.771,140.969 M 530.181,135.897 C 533.062,135.897 535.492,136.886 537.468,138.863 C 539.458,140.853 540.453,143.282 540.453,146.151 C 540.453,149.032 539.476,151.43 537.523,153.347 C 535.447,155.386 533,156.405 530.18,156.405 C 527.409,156.405 525.004,155.398 522.965,153.384 C 520.951,151.37 519.944,148.959 519.944,146.151 C 519.944,143.343 520.951,140.914 522.965,138.863 C 524.943,136.886 527.349,135.897 530.181,135.897 M 530.218,137.747 C 527.886,137.747 525.914,138.565 524.303,140.2 C 522.63,141.909 521.795,143.893 521.795,146.151 C 521.795,148.422 522.625,150.387 524.284,152.047 C 525.945,153.707 527.922,154.537 530.218,154.537 C 532.5,154.537 534.489,153.701 536.187,152.029 C 537.798,150.478 538.604,148.519 538.604,146.151 C 538.604,143.82 537.786,141.836 536.151,140.2 C 534.515,138.565 532.536,137.747 530.218,137.747"
   fill="&fill_color;"
   id="path3006" />

		<path
   d="M 558.071,135.897 C 560.939,135.897 563.369,136.892 565.358,138.882 C 567.348,140.86 568.343,143.282 568.343,146.151 C 568.343,149.02 567.366,151.424 565.413,153.365 C 563.351,155.391 560.902,156.405 558.07,156.405 C 555.299,156.405 552.894,155.398 550.855,153.384 C 548.841,151.37 547.834,148.959 547.834,146.151 C 547.834,143.356 548.841,140.933 550.855,138.882 C 552.847,136.892 555.251,135.897 558.071,135.897 M 558.108,137.747 C 555.776,137.747 553.804,138.571 552.193,140.219 C 550.52,141.916 549.685,143.893 549.685,146.152 C 549.685,148.435 550.515,150.4 552.174,152.048 C 553.835,153.708 555.812,154.538 558.108,154.538 C 560.39,154.538 562.379,153.702 564.077,152.03 C 565.688,150.468 566.494,148.508 566.494,146.152 C 566.494,143.808 565.676,141.831 564.041,140.219 C 562.417,138.571 560.439,137.747 558.108,137.747 M 553.53,144.705 C 553.725,143.448 554.232,142.477 555.05,141.793 C 555.868,141.097 556.863,140.75 558.034,140.75 C 559.646,140.75 560.928,141.269 561.88,142.306 C 562.832,143.343 563.308,144.674 563.308,146.298 C 563.308,147.873 562.814,149.185 561.826,150.235 C 560.838,151.272 559.555,151.791 557.98,151.791 C 556.821,151.791 555.82,151.443 554.977,150.748 C 554.135,150.052 553.628,149.063 553.457,147.782 L 556.039,147.782 C 556.1,149.027 556.851,149.65 558.291,149.65 C 559.011,149.65 559.591,149.338 560.03,148.716 C 560.469,148.094 560.689,147.263 560.689,146.226 C 560.689,145.14 560.488,144.316 560.085,143.754 C 559.683,143.18 559.103,142.893 558.346,142.893 C 556.979,142.893 556.209,143.497 556.039,144.706 L 556.789,144.706 L 554.757,146.738 L 552.725,144.706 L 553.53,144.706"
   fill="&fill_color;"
   id="path3022" />

	</g>
  </g>
</svg>
