<?xml version="1.0" encoding="UTF-8" standalone="no"?>
<!-- Created with Inkscape (http://www.inkscape.org/) -->
<!DOCTYPE svg PUBLIC "-//W3C//DTD SVG 1.1//EN" "http://www.w3.org/Graphics/SVG/1.1/DTD/svg11.dtd" [

	<!ENTITY stroke_color "#FFFFFF">
 	<!ENTITY fill_color "#000000">

]>
<svg
   xmlns:svg="http://www.w3.org/2000/svg"
   xmlns="http://www.w3.org/2000/svg"
   version="1.0"
   width="76.290001"
   height="20.507999"
   id="svg2438">
  <defs
     id="defs2440" />
  <g
     transform="translate(232.43071,-364.96533)"
     id="layer1">
    <g
       transform="translate(-754.37471,116.68333)"
       id="g2303">
		<path
   d="M 534.964,255.99 L 534.964,260.183 L 533.792,260.183 L 533.792,265.163 L 530.605,265.163 L 530.605,260.183 L 529.434,260.183 L 529.434,255.99 C 529.434,255.807 529.495,255.655 529.617,255.532 C 529.752,255.398 529.91,255.332 530.093,255.332 L 534.305,255.332 C 534.476,255.332 534.628,255.398 534.763,255.532 C 534.896,255.655 534.964,255.807 534.964,255.99 M 530.771,253.353 C 530.771,252.389 531.247,251.907 532.2,251.907 C 533.152,251.907 533.628,252.389 533.628,253.353 C 533.628,254.306 533.152,254.782 532.2,254.782 C 531.246,254.782 530.771,254.306 530.771,253.353 M 532.181,248.282 C 535.062,248.282 537.492,249.27 539.468,251.248 C 541.458,253.238 542.453,255.667 542.453,258.536 C 542.453,261.417 541.476,263.815 539.523,265.731 C 537.447,267.77 535,268.79 532.18,268.79 C 529.409,268.79 527.004,267.782 524.965,265.769 C 522.951,263.755 521.944,261.344 521.944,258.537 C 521.944,255.728 522.951,253.3 524.965,251.249 C 526.943,249.27 529.349,248.282 532.181,248.282 M 532.218,250.13 C 529.886,250.13 527.914,250.948 526.303,252.583 C 524.63,254.293 523.795,256.276 523.795,258.535 C 523.795,260.806 524.625,262.77 526.284,264.431 C 527.945,266.09 529.922,266.92 532.218,266.92 C 534.5,266.92 536.489,266.084 538.187,264.411 C 539.798,262.861 540.604,260.902 540.604,258.534 C 540.604,256.202 539.786,254.218 538.151,252.582 C 536.515,250.949 534.536,250.13 532.218,250.13"
   fill="&fill_color;"
   id="path3014" />

		<path
   d="M 560.071,248.282 C 562.952,248.282 565.382,249.27 567.358,251.248 C 569.348,253.226 570.343,255.655 570.343,258.536 C 570.343,261.417 569.366,263.815 567.413,265.731 C 565.337,267.77 562.89,268.79 560.07,268.79 C 557.287,268.79 554.882,267.776 552.855,265.75 C 550.841,263.735 549.834,261.331 549.834,258.536 C 549.834,255.727 550.841,253.299 552.855,251.248 C 554.834,249.27 557.239,248.282 560.071,248.282 M 552.143,255.771 C 551.838,256.613 551.686,257.535 551.686,258.536 C 551.686,260.807 552.516,262.771 554.175,264.432 C 555.848,266.078 557.825,266.903 560.109,266.903 C 562.416,266.903 564.406,266.067 566.078,264.395 C 566.676,263.822 567.146,263.222 567.487,262.6 L 563.624,260.879 C 563.49,261.525 563.16,262.057 562.636,262.472 C 562.123,262.874 561.513,263.107 560.805,263.167 L 560.805,264.742 L 559.615,264.742 L 559.615,263.167 C 558.48,263.155 557.442,262.746 556.503,261.94 L 557.912,260.512 C 558.584,261.134 559.347,261.446 560.201,261.446 C 560.555,261.446 560.854,261.366 561.098,261.208 C 561.354,261.049 561.483,260.786 561.483,260.421 C 561.483,260.165 561.391,259.956 561.208,259.798 L 560.22,259.377 L 559.011,258.828 L 557.382,258.114 L 552.143,255.771 M 560.108,250.113 C 557.776,250.113 555.804,250.937 554.193,252.584 C 553.791,252.988 553.412,253.445 553.058,253.958 L 556.976,255.717 C 557.148,255.179 557.47,254.752 557.947,254.435 C 558.423,254.105 558.978,253.922 559.613,253.885 L 559.613,252.311 L 560.803,252.311 L 560.803,253.885 C 561.743,253.934 562.597,254.251 563.366,254.837 L 562.029,256.21 C 561.456,255.808 560.87,255.606 560.272,255.606 C 559.954,255.606 559.667,255.667 559.411,255.789 C 559.167,255.911 559.045,256.119 559.045,256.412 C 559.045,256.497 559.075,256.582 559.136,256.668 L 560.437,257.255 L 561.333,257.657 L 562.981,258.388 L 568.236,260.733 C 568.408,260.012 568.493,259.28 568.493,258.536 C 568.493,256.18 567.675,254.196 566.04,252.584 C 564.417,250.937 562.439,250.113 560.108,250.113"
   fill="&fill_color;"
   id="path3020" />

		<path
   d="M 587.962,248.282 C 590.83,248.282 593.26,249.276 595.249,251.266 C 597.239,253.244 598.234,255.666 598.234,258.536 C 598.234,261.404 597.257,263.809 595.304,265.75 C 593.241,267.776 590.793,268.79 587.961,268.79 C 585.19,268.79 582.785,267.782 580.746,265.769 C 578.732,263.755 577.725,261.344 577.725,258.537 C 577.725,255.741 578.732,253.318 580.746,251.267 C 582.737,249.276 585.142,248.282 587.962,248.282 M 587.999,250.13 C 585.667,250.13 583.695,250.954 582.084,252.603 C 580.411,254.299 579.576,256.277 579.576,258.536 C 579.576,260.818 580.406,262.784 582.065,264.432 C 583.726,266.091 585.703,266.921 587.999,266.921 C 590.281,266.921 592.27,266.085 593.968,264.412 C 595.579,262.85 596.385,260.891 596.385,258.535 C 596.385,256.191 595.567,254.214 593.932,252.602 C 592.308,250.954 590.33,250.13 587.999,250.13 M 591.862,256.119 L 591.862,257.876 L 584.41,257.876 L 584.41,256.119 L 591.862,256.119 M 591.862,259.413 L 591.862,261.171 L 584.41,261.171 L 584.41,259.413 L 591.862,259.413"
   fill="&fill_color;"
   id="path3028" />

	</g>
  </g>
</svg>
