<?xml version="1.0" encoding="UTF-8" standalone="no"?>
<!-- Created with Inkscape (http://www.inkscape.org/) -->
<!DOCTYPE svg PUBLIC "-//W3C//DTD SVG 1.1//EN" "http://www.w3.org/Graphics/SVG/1.1/DTD/svg11.dtd" [

	<!ENTITY stroke_color "#FFFFFF">
 	<!ENTITY fill_color "#000000">

]>
<svg
   xmlns:svg="http://www.w3.org/2000/svg"
   xmlns="http://www.w3.org/2000/svg"
   version="1.0"
   width="76.290001"
   height="20.507999"
   id="svg2438">
  <defs
     id="defs2440" />
  <g
     transform="translate(232.43071,-364.96533)"
     id="layer1">
    <path
       d="M -219.31115,372.82681 L -219.31115,377.01981 L -220.48315,377.01981 L -220.48315,381.99981 L -223.67015,381.99981 L -223.67015,377.01981 L -224.84115,377.01981 L -224.84115,372.82681 C -224.84115,372.64381 -224.78015,372.49081 -224.65815,372.36881 C -224.52315,372.23481 -224.36515,372.16781 -224.18215,372.16781 L -219.97015,372.16781 C -219.79915,372.16781 -219.64715,372.23481 -219.51215,372.36881 C -219.37915,372.49081 -219.31115,372.64381 -219.31115,372.82681 M -223.50415,370.18981 C -223.50415,369.22581 -223.02815,368.74381 -222.07515,368.74381 C -221.12315,368.74381 -220.64715,369.22581 -220.64715,370.18981 C -220.64715,371.14181 -221.12315,371.61781 -222.07515,371.61781 C -223.02915,371.61881 -223.50415,371.14281 -223.50415,370.18981 M -222.09415,365.11781 C -219.21315,365.11781 -216.78315,366.10681 -214.80715,368.08381 C -212.81715,370.07381 -211.82215,372.50281 -211.82215,375.37181 C -211.82215,378.25281 -212.79915,380.65181 -214.75215,382.56781 C -216.82815,384.60681 -219.27515,385.62581 -222.09515,385.62581 C -224.86615,385.62581 -227.27115,384.61881 -229.31015,382.60481 C -231.32415,380.59081 -232.33115,378.17981 -232.33115,375.37181 C -232.33115,372.56381 -231.32415,370.13481 -229.31015,368.08381 C -227.33215,366.10681 -224.92615,365.11881 -222.09415,365.11781 M -222.05715,366.96781 C -224.38915,366.96781 -226.36115,367.78581 -227.97215,369.42181 C -229.64515,371.13081 -230.48015,373.11381 -230.48015,375.37281 C -230.48015,377.64381 -229.65015,379.60881 -227.99115,381.26881 C -226.33015,382.92881 -224.35315,383.75981 -222.05715,383.75981 C -219.77515,383.75981 -217.78615,382.92381 -216.08815,381.25081 C -214.47715,379.70081 -213.67115,377.74181 -213.67115,375.37281 C -213.67115,373.04181 -214.48915,371.05781 -216.12415,369.42181 C -217.76015,367.78581 -219.73915,366.96781 -222.05715,366.96781"
       fill="&fill_color;"
       id="path3004" />
  </g>
</svg>
