<?xml version="1.0" encoding="UTF-8" standalone="no"?>
<!-- Created with Inkscape (http://www.inkscape.org/) -->
<!DOCTYPE svg PUBLIC "-//W3C//DTD SVG 1.1//EN" "http://www.w3.org/Graphics/SVG/1.1/DTD/svg11.dtd" [

	<!ENTITY stroke_color "#FFFFFF">
 	<!ENTITY fill_color "#000000">

]>
<svg
   xmlns:svg="http://www.w3.org/2000/svg"
   xmlns="http://www.w3.org/2000/svg"
   version="1.0"
   width="76.290001"
   height="20.507999"
   id="svg2438">
  <defs
     id="defs2440" />
  <g
     transform="translate(232.43071,-364.96533)"
     id="layer1">
    <g
       transform="translate(-752.38645,82.607802)"
       id="g2385">
		<path
   d="M 532.964,290.218 L 532.964,294.41 L 531.792,294.41 L 531.792,299.391 L 528.605,299.391 L 528.605,294.41 L 527.434,294.41 L 527.434,290.218 C 527.434,290.035 527.495,289.882 527.617,289.76 C 527.752,289.626 527.91,289.56 528.093,289.56 L 532.305,289.56 C 532.476,289.56 532.628,289.626 532.763,289.76 C 532.896,289.882 532.964,290.035 532.964,290.218 M 528.771,287.58 C 528.771,286.617 529.247,286.135 530.2,286.135 C 531.152,286.135 531.628,286.617 531.628,287.58 C 531.628,288.534 531.152,289.01 530.2,289.01 C 529.246,289.01 528.771,288.534 528.771,287.58 M 530.181,282.51 C 533.062,282.51 535.492,283.498 537.468,285.476 C 539.458,287.465 540.453,289.895 540.453,292.764 C 540.453,295.645 539.476,298.043 537.523,299.959 C 535.447,301.998 533,303.018 530.18,303.018 C 527.409,303.018 525.004,302.01 522.965,299.997 C 520.951,297.982 519.944,295.571 519.944,292.765 C 519.944,289.956 520.951,287.528 522.965,285.477 C 524.943,283.498 527.349,282.51 530.181,282.51 M 530.218,284.358 C 527.886,284.358 525.914,285.176 524.303,286.811 C 522.63,288.52 521.795,290.504 521.795,292.763 C 521.795,295.034 522.625,296.998 524.284,298.659 C 525.945,300.319 527.922,301.149 530.218,301.149 C 532.5,301.149 534.489,300.312 536.187,298.64 C 537.798,297.09 538.604,295.131 538.604,292.763 C 538.604,290.431 537.786,288.447 536.151,286.811 C 534.515,285.177 532.536,284.358 530.218,284.358"
   fill="&fill_color;"
   id="path3012" />

		<path
   d="M 558.071,282.51 C 560.952,282.51 563.382,283.498 565.358,285.476 C 567.348,287.454 568.343,289.882 568.343,292.764 C 568.343,295.645 567.366,298.043 565.413,299.959 C 563.337,301.998 560.89,303.018 558.07,303.018 C 555.287,303.018 552.882,302.003 550.855,299.978 C 548.841,297.963 547.834,295.559 547.834,292.764 C 547.834,289.955 548.841,287.527 550.855,285.476 C 552.834,283.498 555.239,282.51 558.071,282.51 M 550.143,289.998 C 549.838,290.841 549.686,291.762 549.686,292.764 C 549.686,295.035 550.516,296.999 552.175,298.66 C 553.848,300.307 555.825,301.132 558.109,301.132 C 560.416,301.132 562.406,300.296 564.078,298.624 C 564.676,298.05 565.146,297.451 565.487,296.829 L 561.624,295.107 C 561.49,295.753 561.16,296.286 560.636,296.701 C 560.123,297.103 559.513,297.336 558.805,297.396 L 558.805,298.971 L 557.615,298.971 L 557.615,297.396 C 556.48,297.384 555.442,296.974 554.503,296.168 L 555.912,294.74 C 556.584,295.363 557.347,295.675 558.201,295.675 C 558.555,295.675 558.854,295.595 559.098,295.436 C 559.354,295.278 559.483,295.015 559.483,294.65 C 559.483,294.393 559.391,294.185 559.208,294.027 L 558.22,293.605 L 557.011,293.056 L 555.382,292.342 L 550.143,289.998 M 558.108,284.34 C 555.776,284.34 553.804,285.164 552.193,286.812 C 551.791,287.215 551.412,287.673 551.058,288.186 L 554.976,289.944 C 555.148,289.407 555.47,288.98 555.947,288.663 C 556.423,288.333 556.978,288.15 557.613,288.113 L 557.613,286.538 L 558.803,286.538 L 558.803,288.113 C 559.743,288.161 560.597,288.479 561.366,289.065 L 560.029,290.438 C 559.456,290.036 558.87,289.834 558.272,289.834 C 557.954,289.834 557.667,289.896 557.411,290.017 C 557.167,290.14 557.045,290.347 557.045,290.64 C 557.045,290.725 557.075,290.812 557.136,290.897 L 558.437,291.483 L 559.333,291.885 L 560.981,292.617 L 566.236,294.961 C 566.408,294.241 566.493,293.509 566.493,292.765 C 566.493,290.409 565.675,288.424 564.04,286.813 C 562.417,285.164 560.439,284.34 558.108,284.34"
   fill="&fill_color;"
   id="path3018" />

		<path
   d="M 585.962,282.51 C 588.83,282.51 591.26,283.505 593.249,285.494 C 595.239,287.472 596.234,289.894 596.234,292.764 C 596.234,295.632 595.257,298.036 593.304,299.978 C 591.241,302.003 588.793,303.018 585.961,303.018 C 583.19,303.018 580.785,302.01 578.746,299.997 C 576.732,297.982 575.725,295.571 575.725,292.765 C 575.725,289.969 576.732,287.546 578.746,285.495 C 580.737,283.505 583.142,282.51 585.962,282.51 M 585.999,284.358 C 583.667,284.358 581.695,285.181 580.084,286.831 C 578.411,288.527 577.576,290.505 577.576,292.764 C 577.576,295.046 578.406,297.011 580.065,298.66 C 581.726,300.32 583.703,301.15 585.999,301.15 C 588.281,301.15 590.27,300.313 591.968,298.641 C 593.579,297.079 594.385,295.12 594.385,292.764 C 594.385,290.42 593.567,288.442 591.932,286.831 C 590.308,285.182 588.33,284.358 585.999,284.358 M 581.421,291.316 C 581.616,290.059 582.123,289.087 582.941,288.405 C 583.759,287.71 584.754,287.361 585.925,287.361 C 587.537,287.361 588.819,287.88 589.771,288.918 C 590.723,289.955 591.199,291.286 591.199,292.909 C 591.199,294.484 590.705,295.797 589.717,296.846 C 588.728,297.884 587.446,298.404 585.871,298.404 C 584.711,298.404 583.711,298.055 582.868,297.359 C 582.026,296.664 581.519,295.675 581.348,294.393 L 583.93,294.393 C 583.991,295.638 584.742,296.261 586.182,296.261 C 586.902,296.261 587.482,295.949 587.921,295.327 C 588.36,294.704 588.58,293.874 588.58,292.836 C 588.58,291.749 588.379,290.926 587.976,290.364 C 587.574,289.791 586.994,289.504 586.237,289.503 C 584.87,289.504 584.1,290.108 583.93,291.316 L 584.68,291.316 L 582.648,293.348 L 580.616,291.316 L 581.421,291.316"
   fill="&fill_color;"
   id="path3026" />

	</g>
  </g>
</svg>
