<?xml version="1.0" encoding="UTF-8" standalone="no"?>
<!-- Created with Inkscape (http://www.inkscape.org/) -->
<!DOCTYPE svg PUBLIC "-//W3C//DTD SVG 1.1//EN" "http://www.w3.org/Graphics/SVG/1.1/DTD/svg11.dtd" [

	<!ENTITY stroke_color "#FFFFFF">
 	<!ENTITY fill_color "#000000">

]>
<svg
   xmlns:svg="http://www.w3.org/2000/svg"
   xmlns="http://www.w3.org/2000/svg"
   version="1.0"
   width="76.290001"
   height="20.507999"
   id="svg2438">
  <defs
     id="defs2440" />
  <g
     transform="translate(232.43071,-364.96533)"
     id="layer1">
    <g
       transform="translate(-752.33055,140.2418)"
       id="g2390">
		<path
   d="M 532.964,232.585 L 532.964,236.777 L 531.792,236.777 L 531.792,241.758 L 528.605,241.758 L 528.605,236.777 L 527.434,236.777 L 527.434,232.585 C 527.434,232.402 527.495,232.25 527.617,232.127 C 527.752,231.993 527.91,231.926 528.093,231.926 L 532.305,231.926 C 532.476,231.926 532.628,231.993 532.763,232.127 C 532.896,232.25 532.964,232.402 532.964,232.585 M 528.771,229.948 C 528.771,228.983 529.247,228.501 530.2,228.501 C 531.152,228.501 531.628,228.983 531.628,229.948 C 531.628,230.9 531.152,231.377 530.2,231.377 C 529.246,231.377 528.771,230.9 528.771,229.948 M 530.181,224.876 C 533.062,224.876 535.492,225.865 537.468,227.842 C 539.458,229.832 540.453,232.261 540.453,235.13 C 540.453,238.011 539.476,240.409 537.523,242.326 C 535.447,244.364 533,245.384 530.18,245.384 C 527.409,245.384 525.004,244.377 522.965,242.363 C 520.951,240.349 519.944,237.938 519.944,235.131 C 519.944,232.322 520.951,229.894 522.965,227.843 C 524.943,225.865 527.349,224.876 530.181,224.876 M 530.218,226.725 C 527.886,226.725 525.914,227.542 524.303,229.178 C 522.63,230.887 521.795,232.87 521.795,235.129 C 521.795,237.4 522.625,239.365 524.284,241.025 C 525.945,242.685 527.922,243.515 530.218,243.515 C 532.5,243.515 534.489,242.678 536.187,241.005 C 537.798,239.456 538.604,237.496 538.604,235.128 C 538.604,232.797 537.786,230.814 536.151,229.177 C 534.515,227.543 532.536,226.725 530.218,226.725"
   fill="&fill_color;"
   id="path3010" />

		<path
   d="M 558.071,224.876 C 560.952,224.876 563.382,225.865 565.358,227.842 C 567.348,229.821 568.343,232.25 568.343,235.13 C 568.343,238.011 567.366,240.409 565.413,242.326 C 563.337,244.364 560.89,245.384 558.07,245.384 C 555.287,245.384 552.882,244.37 550.855,242.344 C 548.841,240.33 547.834,237.926 547.834,235.13 C 547.834,232.321 548.841,229.893 550.855,227.842 C 552.834,225.865 555.239,224.876 558.071,224.876 M 550.143,232.365 C 549.838,233.208 549.686,234.129 549.686,235.13 C 549.686,237.401 550.516,239.366 552.175,241.026 C 553.848,242.673 555.825,243.498 558.109,243.498 C 560.416,243.498 562.406,242.662 564.078,240.989 C 564.676,240.416 565.146,239.817 565.487,239.195 L 561.624,237.473 C 561.49,238.12 561.16,238.652 560.636,239.067 C 560.123,239.468 559.513,239.701 558.805,239.762 L 558.805,241.336 L 557.615,241.336 L 557.615,239.762 C 556.48,239.749 555.442,239.34 554.503,238.535 L 555.912,237.106 C 556.584,237.728 557.347,238.041 558.201,238.041 C 558.555,238.041 558.854,237.961 559.098,237.802 C 559.354,237.644 559.483,237.381 559.483,237.016 C 559.483,236.759 559.391,236.551 559.208,236.392 L 558.22,235.972 L 557.011,235.422 L 555.382,234.708 L 550.143,232.365 M 558.108,226.707 C 555.776,226.707 553.804,227.531 552.193,229.179 C 551.791,229.582 551.412,230.039 551.058,230.552 L 554.976,232.311 C 555.148,231.774 555.47,231.346 555.947,231.029 C 556.423,230.7 556.978,230.517 557.613,230.48 L 557.613,228.905 L 558.803,228.905 L 558.803,230.48 C 559.743,230.528 560.597,230.846 561.366,231.431 L 560.029,232.804 C 559.456,232.403 558.87,232.2 558.272,232.2 C 557.954,232.2 557.667,232.261 557.411,232.384 C 557.167,232.506 557.045,232.713 557.045,233.006 C 557.045,233.091 557.075,233.178 557.136,233.263 L 558.437,233.849 L 559.333,234.251 L 560.981,234.983 L 566.236,237.327 C 566.408,236.607 566.493,235.875 566.493,235.13 C 566.493,232.774 565.675,230.79 564.04,229.179 C 562.417,227.531 560.439,226.707 558.108,226.707"
   fill="&fill_color;"
   id="path3016" />

	</g>
  </g>
</svg>
