<?xml version="1.0" encoding="UTF-8" standalone="no"?>
<!-- Created with Inkscape (http://www.inkscape.org/) -->
<!DOCTYPE svg PUBLIC "-//W3C//DTD SVG 1.1//EN" "http://www.w3.org/Graphics/SVG/1.1/DTD/svg11.dtd" [

	<!ENTITY stroke_color "#FFFFFF">
 	<!ENTITY fill_color "#000000">

]>
<svg
   xmlns:svg="http://www.w3.org/2000/svg"
   xmlns="http://www.w3.org/2000/svg"
   version="1.0"
   width="76.290001"
   height="20.507999"
   id="svg2438">
  <defs
     id="defs2440" />
  <g
     transform="translate(232.43071,-364.96533)"
     id="layer1">
    <g
       transform="translate(-752.33055,175.57881)"
       id="g2394">
		<path
   d="M 532.964,197.247 L 532.964,201.44 L 531.792,201.44 L 531.792,206.42 L 528.605,206.42 L 528.605,201.44 L 527.434,201.44 L 527.434,197.247 C 527.434,197.064 527.495,196.912 527.617,196.79 C 527.752,196.656 527.91,196.589 528.093,196.589 L 532.305,196.589 C 532.476,196.589 532.628,196.656 532.763,196.79 C 532.896,196.912 532.964,197.064 532.964,197.247 M 528.771,194.611 C 528.771,193.646 529.247,193.164 530.2,193.164 C 531.152,193.164 531.628,193.646 531.628,194.611 C 531.628,195.563 531.152,196.039 530.2,196.039 C 529.246,196.039 528.771,195.563 528.771,194.611 M 530.181,189.539 C 533.062,189.539 535.492,190.528 537.468,192.505 C 539.458,194.495 540.453,196.923 540.453,199.793 C 540.453,202.674 539.476,205.072 537.523,206.988 C 535.447,209.027 533,210.047 530.18,210.047 C 527.409,210.047 525.004,209.039 522.965,207.026 C 520.951,205.012 519.944,202.601 519.944,199.794 C 519.944,196.987 520.951,194.557 522.965,192.506 C 524.943,190.527 527.349,189.539 530.181,189.539 M 530.218,191.388 C 527.886,191.388 525.914,192.206 524.303,193.842 C 522.63,195.551 521.795,197.534 521.795,199.793 C 521.795,202.064 522.625,204.028 524.284,205.689 C 525.945,207.348 527.922,208.178 530.218,208.178 C 532.5,208.178 534.489,207.342 536.187,205.669 C 537.798,204.12 538.604,202.16 538.604,199.792 C 538.604,197.46 537.786,195.477 536.151,193.841 C 534.515,192.206 532.536,191.388 530.218,191.388"
   fill="&fill_color;"
   id="path3008" />

		<path
   d="M 558.071,189.539 C 560.939,189.539 563.369,190.534 565.358,192.523 C 567.348,194.501 568.343,196.923 568.343,199.793 C 568.343,202.661 567.366,205.065 565.413,207.008 C 563.351,209.033 560.902,210.047 558.07,210.047 C 555.299,210.047 552.894,209.039 550.855,207.026 C 548.841,205.012 547.834,202.601 547.834,199.794 C 547.834,196.998 548.841,194.576 550.855,192.524 C 552.847,190.533 555.251,189.539 558.071,189.539 M 558.108,191.388 C 555.776,191.388 553.804,192.212 552.193,193.86 C 550.52,195.556 549.685,197.534 549.685,199.793 C 549.685,202.075 550.515,204.04 552.174,205.689 C 553.835,207.348 555.812,208.178 558.108,208.178 C 560.39,208.178 562.379,207.342 564.077,205.669 C 565.688,204.107 566.494,202.148 566.494,199.792 C 566.494,197.448 565.676,195.471 564.041,193.859 C 562.417,192.212 560.439,191.388 558.108,191.388 M 561.972,197.375 L 561.972,199.133 L 554.52,199.133 L 554.52,197.375 L 561.972,197.375 M 561.972,200.671 L 561.972,202.43 L 554.52,202.43 L 554.52,200.671 L 561.972,200.671"
   fill="&fill_color;"
   id="path3024" />

	</g>
  </g>
</svg>
