<?xml version="1.0" encoding="UTF-8" standalone="no"?>
<!-- Created with Inkscape (http://www.inkscape.org/) -->
<!DOCTYPE svg PUBLIC "-//W3C//DTD SVG 1.1//EN" "http://www.w3.org/Graphics/SVG/1.1/DTD/svg11.dtd" [

	<!ENTITY stroke_color "#FFFFFF">
 	<!ENTITY fill_color "#000000">

]>
<svg
   xmlns:svg="http://www.w3.org/2000/svg"
   xmlns="http://www.w3.org/2000/svg"
   version="1.0"
   width="76.290001"
   height="20.507999"
   id="svg2438">
  <defs
     id="defs2440" />
  <path
     d="M 10.162249,0.23674096 C 7.3627469,0.23676212 5.0022843,1.2141638 3.079892,3.1725895 C 2.1066755,4.1458229 1.3605979,5.2492376 0.84395699,6.4867688 C 0.33932574,7.7123115 0.08729153,8.9931758 0.08729153,10.326831 C 0.08729153,11.672521 0.33932574,12.953386 0.84395699,14.166893 C 1.348584,15.380414 2.0808577,16.473812 3.0420602,17.447024 C 4.0152683,18.408231 5.1086704,19.147402 6.3221907,19.664043 C 7.5477122,20.168674 8.8285765,20.420708 10.162249,20.420708 C 11.495904,20.420708 12.786789,20.161776 14.036364,19.645127 C 15.285909,19.128486 16.403132,18.382409 17.388379,17.409192 C 18.337542,16.48404 19.04911,15.421364 19.52973,14.219858 C 20.022326,13.00635 20.271242,11.708567 20.271259,10.326831 C 20.271242,8.9571298 20.022326,7.6700322 19.52973,6.4565034 C 19.037096,5.2309861 18.322409,4.1407068 17.373242,3.1915054 C 15.39075,1.2210615 12.985766,0.23676212 10.162249,0.23674096 z M 10.200085,2.0565136 C 12.482924,2.0565305 14.430826,2.8671761 16.052866,4.4891825 C 16.833826,5.2701721 17.430062,6.1629685 17.83859,7.1602001 C 18.24708,8.1574571 18.451469,9.2094475 18.451486,10.326831 C 18.451482,11.146325 18.349391,11.916067 18.152607,12.638434 L 3.1669094,5.9911554 C 3.5088301,5.4483919 3.9123692,4.9425208 4.3775689,4.4702666 C 5.951528,2.8602741 7.893196,2.0565305 10.200085,2.0565136 z M 2.2664789,7.9206445 L 17.248393,14.688989 C 16.925883,15.195812 16.543067,15.673293 16.090702,16.115298 C 15.273666,16.908293 14.353927,17.51455 13.332667,17.935071 C 12.323392,18.355596 11.281422,18.563104 10.200085,18.5631 C 9.1067121,18.563104 8.0609593,18.358719 7.0637192,17.950204 C 6.0664664,17.529683 5.1705512,16.930328 4.3775689,16.149347 C 3.584574,15.356365 2.9676323,14.460449 2.5350973,13.463197 C 2.1145677,12.453943 1.9070642,11.40819 1.9070642,10.326831 C 1.9070642,9.4974092 2.0250156,8.6947659 2.2664789,7.9206445 z "
     fill="&fill_color;" stroke="&stroke_color;" style="fill-opacity:1;fill-rule:evenodd;stroke-width:0.12840331px;stroke-linecap:butt;stroke-linejoin:miter;stroke-opacity:1"
     id="path3522" />
  <path
     d="M 10.213288,4.8745209 C 9.9603352,4.8745209 9.5513076,4.9370746 9.0390338,5.0284633 C 8.5267558,5.1198563 7.9262332,5.2420183 7.3510419,5.3631985 C 6.2053184,5.6045772 5.1720661,5.8427609 5.163628,5.8447159 C 5.0021066,5.8759208 4.8632885,5.9635941 4.7751962,6.0756295 C 4.6870998,6.1876607 4.6448162,6.3141348 4.6212539,6.4336308 C 4.5741207,6.672627 4.5900321,6.9096258 4.5765032,7.0368702 L 4.5747131,7.0494003 L 4.5747131,7.0619305 C 4.5747131,7.2518258 4.6395096,7.4262245 4.7447658,7.5649283 C 4.7923263,7.6276005 4.8505509,7.6853299 4.9183985,7.7296109 L 3.5490274,10.312617 C 3.5310594,10.325574 3.5139632,10.338231 3.4971208,10.351993 C 3.3753989,10.451431 3.279368,10.589017 3.2608372,10.752959 C 3.2371733,10.812068 3.2215581,10.87455 3.2178765,10.939122 L 3.2017663,10.969553 L 3.2160865,10.976713 L 3.2160865,11.875302 C 3.2160865,12.084812 3.3610025,12.214087 3.4935408,12.303119 C 3.6260748,12.392151 3.780343,12.460997 3.9392577,12.526872 C 4.9769066,12.957017 6.0983653,12.913002 7.0789534,12.526872 C 7.2531363,12.458284 7.4093088,12.390056 7.5407806,12.299543 C 7.6722524,12.209022 7.8057047,12.072629 7.8057047,11.875302 L 7.8057047,10.974923 L 7.8164406,10.969553 L 7.8039147,10.946282 C 7.8010921,10.879196 7.785477,10.814231 7.760954,10.752959 C 7.7424232,10.589017 7.6463922,10.451431 7.5246703,10.351993 C 7.5055767,10.336399 7.4861403,10.321816 7.4655994,10.307242 L 6.0872823,7.7081305 L 9.3093195,7.2982142 L 9.0121834,13.28584 C 8.6104174,13.343667 8.2457214,13.430752 7.9345825,13.541814 C 7.6387116,13.64743 7.3871217,13.776286 7.2024696,13.93204 C 7.0178174,14.087794 6.8874247,14.279944 6.8874247,14.494109 C 6.8874247,14.708269 7.0178174,14.900424 7.2024696,15.056173 C 7.3871217,15.211927 7.6387116,15.340783 7.9345825,15.446399 C 8.5263368,15.657631 9.3097385,15.782924 10.179277,15.782924 C 11.048812,15.782924 11.834008,15.657631 12.425758,15.446399 C 12.721629,15.340783 12.973223,15.211927 13.157875,15.056173 C 13.342527,14.90042 13.462175,14.708269 13.462175,14.494109 C 13.462175,14.279953 13.342527,14.087794 13.157875,13.93204 C 12.973223,13.776291 12.721629,13.64743 12.425758,13.541814 C 12.096985,13.424455 11.707834,13.332656 11.27835,13.275104 L 10.97942,7.2803139 L 14.274852,7.6991804 L 12.891161,10.309032 C 12.871771,10.322891 12.853765,10.337212 12.83567,10.351993 C 12.713952,10.451431 12.617921,10.589017 12.59939,10.752959 C 12.575295,10.813152 12.559692,10.876869 12.55643,10.942702 L 12.54211,10.969553 L 12.55464,10.976713 L 12.55464,11.875302 C 12.55464,12.084812 12.699556,12.214087 12.83209,12.303119 C 12.964628,12.392151 13.118888,12.460997 13.277807,12.526872 C 14.31546,12.957017 15.436914,12.913002 16.417507,12.526872 C 16.59169,12.458284 16.747862,12.390056 16.879334,12.299543 C 17.010806,12.209022 17.144258,12.072629 17.144258,11.875302 L 17.144258,10.976713 L 17.156788,10.969553 L 17.142468,10.942702 C 17.139205,10.876869 17.123603,10.813152 17.099507,10.752959 C 17.080977,10.589017 16.984946,10.451431 16.863224,10.351993 C 16.845378,10.337419 16.826839,10.324504 16.807733,10.310822 L 15.474166,7.7922618 C 15.481399,7.7886776 15.488728,7.7857492 15.495643,7.7815217 C 15.601724,7.716666 15.649818,7.6244817 15.6836,7.5398679 C 15.751151,7.3706363 15.765979,7.1908422 15.782051,7.0350801 L 15.785631,7.0046497 L 15.780261,6.9760092 C 15.760567,6.8472288 15.781218,6.6326455 15.751621,6.4103605 C 15.736822,6.2992222 15.707898,6.1787571 15.628105,6.0684694 C 15.548311,5.9581775 15.41427,5.8739531 15.262943,5.8447159 C 15.262943,5.8447159 14.217144,5.6055335 13.062999,5.3631985 C 12.485929,5.242031 11.883913,5.1198351 11.373217,5.0284633 C 10.86253,4.9370957 10.460252,4.8745209 10.213288,4.8745209 z M 14.768896,7.7618314 L 14.940738,7.7833117 L 16.125737,10.020838 C 15.76231,9.9258225 15.324748,9.8722656 14.849447,9.8722656 C 14.374146,9.8722656 13.936588,9.9258225 13.573161,10.020838 L 14.768896,7.7618314 z M 5.5932389,7.7707815 L 6.7853931,10.020838 C 6.4221445,9.9259749 5.9858009,9.8722656 5.5108976,9.8722656 C 5.0348645,9.8722656 4.5965743,9.9255475 4.232818,10.020838 L 5.4124461,7.7940519 L 5.5932389,7.7707815 z M 5.5108976,10.203421 C 6.1836137,10.203421 6.7668031,10.335599 7.0556873,10.529206 L 7.2364801,10.872891 C 7.1375758,11.172287 6.4029747,11.406319 5.5108976,11.406319 C 4.6151263,11.406319 3.8775377,11.170493 3.7835253,10.869311 L 3.960738,10.532786 C 4.2477474,10.337254 4.8340767,10.203421 5.5108976,10.203421 z M 14.849447,10.203421 C 15.523627,10.203421 16.107807,10.336704 16.396022,10.530996 L 16.576819,10.871101 C 16.480721,11.171525 15.743644,11.406319 14.849447,11.406319 C 13.95525,11.406319 13.218173,11.171525 13.12207,10.871101 L 13.302867,10.530996 C 13.591091,10.336704 14.175271,10.203421 14.849447,10.203421 z "
     fill="&fill_color;" style="fill-opacity:1;fill-rule:evenodd;stroke:none;stroke-width:8.15309048;stroke-linecap:butt;stroke-linejoin:miter;stroke-miterlimit:4;stroke-dasharray:none;stroke-opacity:1"
     id="path3557" />
</svg>
